name Run_300 01_newCOP3_v24.mot
datacolumns 19
datarows 22
range 1.41666700 1.43854200
endheader
                time	   R_ground_force_vx	   R_ground_force_vy	   R_ground_force_vz	   R_ground_force_px	   R_ground_force_py	   R_ground_force_pz	   L_ground_force_vx	   L_ground_force_vy	   L_ground_force_vz	   L_ground_force_px	   L_ground_force_py	   L_ground_force_pz	   R_ground_torque_x	   R_ground_torque_y	   R_ground_torque_z	   L_ground_torque_x	   L_ground_torque_y	   L_ground_torque_z	
          1.41666700	          0.00000000	          0.00000000	          0.00000000	          0.00000000	          0.00000000	          0.00000000	        145.71072400	       1240.11425800	         -2.36298500	          0.93171300	          0.00000000	         -0.34256000	          0.00000000	          0.00000000	          0.00000000	         -0.00000000	          5.36848600	         -0.00000000	
          1.41770800	          0.00000000	          0.00000000	          0.00000000	          0.00000000	          0.00000000	          0.00000000	        149.00233500	       1221.75927700	         -3.77473100	          0.92906500	          0.00000000	         -0.34241300	          0.00000000	          0.00000000	          0.00000000	         -0.00000000	          5.54176100	         -0.00000000	
          1.41875000	          0.00000000	          0.00000000	          0.00000000	          0.00000000	          0.00000000	          0.00000000	        152.13000500	       1203.16381800	         -5.18683900	          0.92642800	          0.00000000	         -0.34226700	          0.00000000	          0.00000000	          0.00000000	         -0.00000000	          5.70899900	         -0.00000000	
          1.41979200	          0.00000000	          0.00000000	          0.00000000	          0.00000000	          0.00000000	          0.00000000	        155.08490000	       1184.35266100	         -6.58746300	          0.92380300	          0.00000000	         -0.34212000	          0.00000000	          0.00000000	          0.00000000	         -0.00000000	          5.86961200	         -0.00000000	
          1.42083300	          0.00000000	          0.00000000	          0.00000000	          0.00000000	          0.00000000	          0.00000000	        157.85984800	       1165.35083000	         -7.96486900	          0.92119100	          0.00000000	         -0.34197000	          0.00000000	          0.00000000	          0.00000000	         -0.00000000	          6.02303200	         -0.00000000	
          1.42187500	          0.00000000	          0.00000000	          0.00000000	          0.00000000	          0.00000000	          0.00000000	        160.44938700	       1146.18371600	         -9.30768400	          0.91859300	          0.00000000	         -0.34181400	          0.00000000	          0.00000000	          0.00000000	         -0.00000000	          6.16872200	         -0.00000000	
          1.42291700	          0.00000000	          0.00000000	          0.00000000	          0.00000000	          0.00000000	          0.00000000	        162.84976200	       1126.87646500	        -10.60513800	          0.91600800	          0.00000000	         -0.34164900	          0.00000000	          0.00000000	          0.00000000	         -0.00000000	          6.30617100	         -0.00000000	
          1.42395800	          0.00000000	          0.00000000	          0.00000000	          0.00000000	          0.00000000	          0.00000000	        165.05882300	       1107.45373500	        -11.84728400	          0.91343700	          0.00000000	         -0.34147300	          0.00000000	          0.00000000	          0.00000000	         -0.00000000	          6.43490000	         -0.00000000	
          1.42500000	          0.00000000	          0.00000000	          0.00000000	          0.00000000	          0.00000000	          0.00000000	        167.07589700	       1087.93896500	        -13.02519000	          0.91087900	          0.00000000	         -0.34128500	          0.00000000	          0.00000000	          0.00000000	         -0.00000000	          6.55446200	         -0.00000000	
          1.42604200	          0.00000000	          0.00000000	          0.00000000	          0.00000000	          0.00000000	          0.00000000	        168.90165700	       1068.35412600	        -14.13110900	          0.90833300	          0.00000000	         -0.34108100	          0.00000000	          0.00000000	          0.00000000	         -0.00000000	          6.66444700	         -0.00000000	
          1.42708300	          0.00000000	          0.00000000	          0.00000000	          0.00000000	          0.00000000	          0.00000000	        170.53793300	       1048.71972700	        -15.15860700	          0.90579900	          0.00000000	         -0.34086000	          0.00000000	          0.00000000	          0.00000000	         -0.00000000	          6.76448100	         -0.00000000	
          1.42812500	          0.00000000	          0.00000000	          0.00000000	          0.00000000	          0.00000000	          0.00000000	        171.98748800	       1029.05383300	        -16.10267400	          0.90327600	          0.00000000	         -0.34062100	          0.00000000	          0.00000000	          0.00000000	         -0.00000000	          6.85422800	         -0.00000000	
          1.42916700	          0.00000000	          0.00000000	          0.00000000	          0.00000000	          0.00000000	          0.00000000	        173.25378400	       1009.37274200	        -16.95978200	          0.90076400	          0.00000000	         -0.34036200	          0.00000000	          0.00000000	          0.00000000	         -0.00000000	          6.93339100	         -0.00000000	
          1.43020800	          0.00000000	          0.00000000	          0.00000000	          0.00000000	          0.00000000	          0.00000000	        174.34080500	        989.69018600	        -17.72790500	          0.89826100	          0.00000000	         -0.34008400	          0.00000000	          0.00000000	          0.00000000	         -0.00000000	          7.00171400	         -0.00000000	
          1.43125000	          0.00000000	          0.00000000	          0.00000000	          0.00000000	          0.00000000	          0.00000000	        175.25274700	        970.01782200	        -18.40653200	          0.89576600	          0.00000000	         -0.33978600	          0.00000000	          0.00000000	          0.00000000	         -0.00000000	          7.05898100	         -0.00000000	
          1.43229200	          0.00000000	          0.00000000	          0.00000000	          0.00000000	          0.00000000	          0.00000000	        175.99380500	        950.36492900	        -18.99660300	          0.89328000	          0.00000000	         -0.33946900	          0.00000000	          0.00000000	          0.00000000	         -0.00000000	          7.10502100	         -0.00000000	
          1.43333300	          0.00000000	          0.00000000	          0.00000000	          0.00000000	          0.00000000	          0.00000000	        176.56803900	        930.73870800	        -19.50044400	          0.89080100	          0.00000000	         -0.33913200	          0.00000000	          0.00000000	          0.00000000	         -0.00000000	          7.13969900	         -0.00000000	
          1.43437500	          0.00000000	          0.00000000	          0.00000000	          0.00000000	          0.00000000	          0.00000000	        176.97905000	        911.14453100	        -19.92166500	          0.88832900	          0.00000000	         -0.33877800	          0.00000000	          0.00000000	          0.00000000	         -0.00000000	          7.16292600	         -0.00000000	
          1.43541700	          0.00000000	          0.00000000	          0.00000000	          0.00000000	          0.00000000	          0.00000000	        177.22998000	        891.58624300	        -20.26501500	          0.88586300	          0.00000000	         -0.33840800	          0.00000000	          0.00000000	          0.00000000	         -0.00000000	          7.17465000	         -0.00000000	
          1.43645800	          0.00000000	          0.00000000	          0.00000000	          0.00000000	          0.00000000	          0.00000000	        177.32327300	        872.06658900	        -20.53623800	          0.88340400	          0.00000000	         -0.33802400	          0.00000000	          0.00000000	          0.00000000	         -0.00000000	          7.17486200	         -0.00000000	
          1.43750000	          0.00000000	          0.00000000	          0.00000000	          0.00000000	          0.00000000	          0.00000000	        177.26069600	        852.58721900	        -20.74189900	          0.88095000	          0.00000000	         -0.33762800	          0.00000000	          0.00000000	          0.00000000	         -0.00000000	          7.16359200	         -0.00000000	
          1.43854200	          0.00000000	          0.00000000	          0.00000000	          0.00000000	          0.00000000	          0.00000000	        177.04325900	        833.14959700	        -20.88919800	          0.87850200	          0.00000000	         -0.33722300	          0.00000000	          0.00000000	          0.00000000	         -0.00000000	          7.14090800	         -0.00000000	
